<svg width="44" height="38" viewBox="0 0 44 38" fill="none" xmlns="http://www.w3.org/2000/svg">
<path d="M6.13541 14.1455C6.11329 13.9171 6.42135 13.5992 6.56077 13.4232L8.71914 10.8303L14.9502 2.93731C15.3747 2.37864 15.7994 1.77849 16.2939 1.28452C17.4798 0.0999932 19.3464 1.40566 18.8831 2.91859L18.8692 2.96534C18.7225 3.43177 18.2752 3.82725 17.963 4.18876L9.97415 13.8705C9.91984 13.9499 9.8491 14.0374 9.83146 14.1341L6.13541 14.1455Z" fill="black"/>
<path d="M33.6606 14.1455C32.9683 13.0024 32.1607 11.9737 31.375 10.9182L26.5212 4.50949C25.7418 3.5178 24.6051 2.22039 26.0881 1.11323C27.5039 0.0563166 28.4641 2.16692 29.2112 3.20113L36.4681 13.1012C36.6869 13.4032 37.0275 13.7559 37.1187 14.1433L33.6606 14.1455Z" fill="black"/>
<path d="M10.1564 14.1619L34.1139 14.1626L37.6945 14.162L40.0542 14.1614C40.5752 14.1615 41.1768 14.1005 41.6796 14.2162C42.6285 14.4345 43.3488 15.1623 43.4977 16.0242L43.5048 16.0639C43.7056 17.2615 42.6468 18.3716 41.3403 18.5417C40.9336 18.5946 40.4882 18.5702 40.0763 18.5729L4.26494 18.5712C3.8395 18.5725 3.3638 18.6111 2.94435 18.5563C0.18722 18.1966 0.0476167 14.7521 2.70677 14.206C3.15007 14.115 3.70676 14.1636 4.16283 14.1633L6.67004 14.1626L10.1564 14.1619Z" fill="black"/>
<path d="M3.99731 18.5955L39.2557 18.5856C39.2365 18.6042 39.2484 18.5955 39.2146 18.6128L39.1854 18.6275C39.19 19.1453 39.0269 19.702 38.9321 20.2085L38.3089 23.2129L36.6199 30.574C36.0644 33.2947 35.8643 36.0683 32.9562 37.1076C32.4676 37.2822 31.907 37.4133 31.3933 37.4399L12.2704 37.4566C10.1467 37.4558 8.23402 36.4012 7.4111 34.1265C7.23395 33.6368 7.12718 33.1256 7.0126 32.6157L4.22889 20.0327C4.12922 19.5525 4.01759 19.0904 3.99731 18.5955Z" fill="black"/>
<rect width="3.21141" height="11.9154" rx="1.6057" transform="matrix(0.973866 -0.227122 0.211181 0.977447 9.3396 21.5352)" fill="white"/>
<rect width="3.21141" height="11.9154" rx="1.6057" transform="matrix(-0.973866 -0.227122 -0.211181 0.977447 34.2151 21.5352)" fill="#D9D9D9"/>
<rect width="3.21141" height="11.9154" rx="1.6057" transform="matrix(-0.973866 -0.227122 -0.211181 0.977447 34.2151 21.5352)" fill="white"/>
<rect width="3.2053" height="11.1006" rx="1.60265" transform="matrix(1 0 0 -1 20.0239 33.0165)" fill="white"/>
</svg>
