<svg width="56" height="56" viewBox="0 0 56 56" fill="none" xmlns="http://www.w3.org/2000/svg">
<path d="M27.6826 24.8033C30.9584 24.8033 33.614 22.2176 33.614 19.028C33.614 15.8384 30.9584 13.2527 27.6826 13.2527C24.4068 13.2527 21.7512 15.8384 21.7512 19.028C21.7512 22.2176 24.4068 24.8033 27.6826 24.8033Z" fill="black"/>
<path d="M35.7829 26.842H19.5812C18.5265 26.842 17.6702 27.6747 17.6702 28.7028V40.4454C20.588 42.2107 24.0204 43.2478 27.7094 43.2478C31.3751 43.2478 34.7865 42.2232 37.695 40.4772V28.7028C37.695 27.6758 36.8387 26.842 35.7829 26.842Z" fill="black"/>
<path d="M28.0003 0C12.536 0 0 12.5358 0 28C0 43.4642 12.536 56 28.0003 56C43.4646 56 56.0006 43.4642 56.0006 28C56.0006 12.5358 43.4646 0 28.0003 0ZM28.0341 51.1513C15.1738 51.1513 4.74838 40.726 4.74838 27.8658C4.74838 15.0057 15.1738 4.58033 28.0341 4.58033C40.8944 4.58033 51.3199 15.0057 51.3199 27.8658C51.3199 40.726 40.8944 51.1513 28.0341 51.1513Z" fill="black"/>
</svg>
