<svg width="327" height="48" viewBox="0 0 327 48" fill="none" xmlns="http://www.w3.org/2000/svg">
<g clip-path="url(#clip0_13_95)">
<path d="M142.559 9.0833C140.804 9.85893 138.935 10.373 136.986 10.6227C138.991 9.41614 140.521 7.52016 141.241 5.23487C139.371 6.3582 137.308 7.15166 135.108 7.59445C133.333 5.68955 130.804 4.50977 128.044 4.50977C122.69 4.50977 118.38 8.89014 118.38 14.2601C118.38 15.0328 118.444 15.7757 118.604 16.483C110.564 16.0877 103.449 12.2037 98.6702 6.28688C97.8358 7.74601 97.3464 9.41614 97.3464 11.2141C97.3464 14.59 99.0711 17.5825 101.642 19.3151C100.088 19.2854 98.564 18.8307 97.2727 18.1145C97.2727 18.1442 97.2727 18.1828 97.2727 18.2215C97.2727 22.9585 100.625 26.8931 105.021 27.7994C104.234 28.0164 103.376 28.1204 102.485 28.1204C101.866 28.1204 101.241 28.0847 100.654 27.954C101.907 31.8143 105.463 34.6523 109.691 34.7445C106.401 37.3388 102.223 38.9019 97.7002 38.9019C96.9071 38.9019 96.1464 38.8663 95.3857 38.7682C99.6696 41.5528 104.747 43.1426 110.222 43.1426C128.018 43.1426 137.747 28.2838 137.747 15.4042C137.747 14.9733 137.732 14.5573 137.712 14.1442C139.631 12.7713 141.244 11.0566 142.559 9.0833Z" fill="white"/>
</g>
<g clip-path="url(#clip1_13_95)">
<path d="M27.6649 9.48397H31.4157V2.65544C30.7686 2.56239 28.5431 2.35303 25.9512 2.35303C20.5433 2.35303 16.8387 5.90866 16.8387 12.4437V18.458H10.871V26.0918H16.8387V45.2998H24.1554V26.0936H29.8818L30.7908 18.4598H24.1537V13.2007C24.1554 10.9943 24.7238 9.48397 27.6649 9.48397Z" fill="white"/>
</g>
<g clip-path="url(#clip2_13_95)">
<path d="M228.992 6.95459H202.21C200.368 6.95459 198.862 8.47306 198.862 10.329V37.3241C198.862 39.18 200.368 40.6984 202.21 40.6984H228.992C230.833 40.6984 232.339 39.18 232.339 37.3241V10.329C232.339 8.47306 230.833 6.95459 228.992 6.95459ZM208.905 35.6369H203.883V20.4521H208.905V35.6369ZM206.394 17.5839C204.72 17.5839 203.381 16.2341 203.381 14.547C203.381 12.8598 204.72 11.51 206.394 11.51C208.068 11.51 209.407 12.8598 209.407 14.547C209.407 16.2341 208.068 17.5839 206.394 17.5839ZM227.318 35.6369H222.296V26.6947C222.296 25.3451 221.124 24.164 219.785 24.164C218.446 24.164 217.274 25.3451 217.274 26.6947V35.6369H212.253V20.4521H217.274V22.4768C218.111 21.127 219.953 20.1147 221.459 20.1147C224.639 20.1147 227.318 22.8142 227.318 26.0199V35.6369Z" fill="white"/>
</g>
<g clip-path="url(#clip3_13_95)">
<path d="M326.648 15.9274C326.559 13.89 326.232 12.4893 325.763 11.2755C325.28 9.98718 324.537 8.83372 323.564 7.87484C322.612 6.90104 321.46 6.14436 320.197 5.66506C318.986 5.19309 317.603 4.86361 315.582 4.77378C313.546 4.67634 312.899 4.65381 307.734 4.65381C302.569 4.65381 301.923 4.67634 299.894 4.76617C297.872 4.856 296.483 5.18577 295.279 5.65746C294 6.14436 292.856 6.89343 291.905 7.87484C290.939 8.83372 290.188 9.99479 289.712 11.2682C289.244 12.4893 288.917 13.8824 288.828 15.9198C288.731 17.9725 288.709 18.6241 288.709 23.8302C288.709 29.0363 288.731 29.6879 288.821 31.733C288.91 33.7704 289.237 35.1711 289.705 36.3849C290.188 37.6732 290.939 38.8267 291.905 39.7856C292.856 40.7594 294.008 41.516 295.271 41.9953C296.483 42.4673 297.865 42.7968 299.886 42.8866C301.915 42.9767 302.562 42.999 307.727 42.999C312.892 42.999 313.538 42.9767 315.567 42.8866C317.589 42.7968 318.978 42.4673 320.182 41.9953C322.739 40.999 324.76 38.9616 325.749 36.3849C326.217 35.1638 326.544 33.7704 326.633 31.733C326.722 29.6879 326.744 29.0363 326.744 23.8302C326.744 18.6241 326.737 17.9725 326.648 15.9274ZM323.222 31.5832C323.14 33.4558 322.828 34.4671 322.568 35.1413C321.929 36.8118 320.613 38.1376 318.956 38.7819C318.287 39.0441 317.277 39.3586 315.426 39.4409C313.419 39.531 312.818 39.5532 307.742 39.5532C302.666 39.5532 302.056 39.531 300.057 39.4409C298.199 39.3586 297.196 39.0441 296.527 38.7819C295.702 38.4747 294.952 37.9878 294.342 37.3511C293.711 36.7293 293.228 35.9802 292.923 35.1489C292.663 34.4747 292.351 33.4558 292.269 31.5908C292.18 29.5683 292.158 28.9614 292.158 23.8451C292.158 18.7289 292.18 18.1147 292.269 16.0998C292.351 14.2271 292.663 13.2158 292.923 12.5417C293.228 11.7101 293.711 10.9537 294.35 10.3392C294.966 9.70248 295.71 9.21557 296.535 8.90863C297.204 8.64645 298.214 8.3319 300.065 8.24938C302.071 8.15955 302.673 8.13702 307.749 8.13702C312.832 8.13702 313.434 8.15955 315.433 8.24938C317.291 8.3319 318.295 8.64645 318.963 8.90863C319.788 9.21557 320.539 9.70248 321.148 10.3392C321.78 10.961 322.263 11.7101 322.568 12.5417C322.828 13.2158 323.14 14.2344 323.222 16.0998C323.311 18.1223 323.333 18.7289 323.333 23.8451C323.333 28.9614 323.311 29.5606 323.222 31.5832Z" fill="white"/>
<path d="M307.734 13.9795C302.339 13.9795 297.962 18.3914 297.962 23.8299C297.962 29.2683 302.339 33.6802 307.734 33.6802C313.13 33.6802 317.507 29.2683 317.507 23.8299C317.507 18.3914 313.13 13.9795 307.734 13.9795ZM307.734 30.2196C304.234 30.2196 301.395 27.3581 301.395 23.8299C301.395 20.3016 304.234 17.4402 307.734 17.4402C311.235 17.4402 314.073 20.3016 314.073 23.8299C314.073 27.3581 311.235 30.2196 307.734 30.2196Z" fill="white"/>
<path d="M320.175 13.5897C320.175 14.8596 319.153 15.8893 317.893 15.8893C316.633 15.8893 315.612 14.8596 315.612 13.5897C315.612 12.3194 316.633 11.29 317.893 11.29C319.153 11.29 320.175 12.3194 320.175 13.5897Z" fill="white"/>
</g>
<defs>
<clipPath id="clip0_13_95">
<rect width="47.1728" height="47.5482" fill="white" transform="translate(95.3857 0.0522461)"/>
</clipPath>
<clipPath id="clip1_13_95">
<rect width="41.086" height="42.9467" fill="white" transform="translate(0.279297 2.35303)"/>
</clipPath>
<clipPath id="clip2_13_95">
<rect width="33.4775" height="33.7439" fill="white" transform="translate(198.862 6.95459)"/>
</clipPath>
<clipPath id="clip3_13_95">
<rect width="38.0426" height="38.3453" fill="white" transform="translate(288.642 4.65381)"/>
</clipPath>
</defs>
</svg>
