<svg width="237" height="60" viewBox="0 0 237 60" fill="none" xmlns="http://www.w3.org/2000/svg">
<path d="M0.960205 45.76L16.7042 22.72L1.60021 0.959999H13.5042L24.1922 16.384L34.8162 0.959999H46.4642L31.2962 22.656L47.1682 45.76H35.1362L23.9362 29.568L12.6722 45.76H0.960205Z" fill="black"/>
<path d="M70.6802 46.72C66.4135 46.72 62.6802 46.016 59.4802 44.608C56.2802 43.2 53.7629 41.1947 51.9282 38.592C50.0935 35.9467 49.0909 32.8747 48.9202 29.376H59.0962C59.3095 31.2533 59.8642 32.8747 60.7602 34.24C61.6562 35.5627 62.8935 36.5867 64.4722 37.312C66.0509 38.0373 67.8855 38.4 69.9762 38.4C73.0482 38.4 75.4162 37.824 77.0802 36.672C78.7869 35.4773 79.6402 33.8133 79.6402 31.68C79.6402 30.1013 79.1282 28.8 78.1042 27.776C77.0802 26.7093 75.6082 25.8133 73.6882 25.088C71.7682 24.3627 69.2509 23.68 66.1362 23.04H66.0722C62.7015 22.3147 59.9069 21.4827 57.6882 20.544C55.5122 19.6053 53.8055 18.4107 52.5682 16.96C51.3735 15.5093 50.7762 13.76 50.7762 11.712C50.7762 9.36533 51.5442 7.31733 53.0802 5.568C54.6589 3.776 56.7922 2.41067 59.4802 1.472C62.1682 0.490667 65.2189 0 68.6322 0C72.8135 0 76.4402 0.682667 79.5122 2.048C82.6269 3.41333 85.0589 5.35467 86.8082 7.872C88.5575 10.3893 89.5389 13.3973 89.7522 16.896H79.1282C78.8722 14.2507 77.8482 12.1813 76.0562 10.688C74.2642 9.19467 71.8962 8.448 68.9522 8.448C67.1175 8.448 65.5175 8.72533 64.1522 9.28C62.7869 9.792 61.7415 10.56 61.0162 11.584C60.2909 12.5653 59.9282 13.76 59.9282 15.168C59.9282 16.7467 60.4615 18.0267 61.5282 19.008C62.5949 19.9893 64.2375 20.864 66.4562 21.632C68.7175 22.4 71.9602 23.2533 76.1842 24.192C76.3549 24.2347 76.5042 24.2773 76.6322 24.32C76.8029 24.32 76.9735 24.3413 77.1442 24.384C77.2295 24.4267 77.3149 24.448 77.4002 24.448C77.4855 24.448 77.5709 24.4693 77.6562 24.512C80.1309 25.1093 82.2215 25.8133 83.9282 26.624C85.6349 27.392 86.9789 28.4373 87.9602 29.76C88.9415 31.0827 89.4322 32.7467 89.4322 34.752C89.4322 37.0987 88.6429 39.1893 87.0642 41.024C85.5282 42.816 83.3309 44.224 80.4722 45.248C77.6135 46.2293 74.3495 46.72 70.6802 46.72Z" fill="black"/>
<path d="M97.4357 58.56V13.76H106.332V24.896C107.1 21.3547 108.55 18.5173 110.684 16.384C112.817 14.208 115.356 13.12 118.3 13.12C120.817 13.12 123.078 13.8453 125.084 15.296C127.132 16.7467 128.732 18.752 129.884 21.312C131.078 23.8293 131.676 26.6453 131.676 29.76C131.676 32.8747 131.078 35.712 129.884 38.272C128.732 40.7893 127.132 42.7733 125.084 44.224C123.078 45.6747 120.817 46.4 118.3 46.4C115.356 46.4 112.817 45.3333 110.684 43.2C108.55 41.024 107.1 38.1653 106.332 34.624V58.56H97.4357ZM114.332 38.144C115.868 38.144 117.254 37.7813 118.492 37.056C119.772 36.3307 120.774 35.328 121.5 34.048C122.225 32.768 122.588 31.3387 122.588 29.76C122.588 28.1813 122.225 26.752 121.5 25.472C120.774 24.192 119.772 23.1893 118.492 22.464C117.254 21.696 115.868 21.312 114.332 21.312C112.796 21.312 111.388 21.696 110.108 22.464C108.87 23.1893 107.889 24.192 107.164 25.472C106.481 26.752 106.14 28.1813 106.14 29.76C106.14 31.3387 106.481 32.768 107.164 34.048C107.889 35.328 108.87 36.3307 110.108 37.056C111.388 37.7813 112.796 38.144 114.332 38.144Z" fill="black"/>
<path d="M139.311 45.76V0.32H148.207V45.76H139.311Z" fill="black"/>
<path d="M169.95 46.4C167.56 46.4 165.47 45.8027 163.678 44.608C161.886 43.4133 160.499 41.728 159.518 39.552C158.536 37.3333 158.046 34.7733 158.046 31.872V13.76H167.006L167.07 30.4C167.07 32.7467 167.731 34.624 169.054 36.032C170.376 37.44 172.104 38.144 174.238 38.144C175.603 38.144 176.84 37.8027 177.95 37.12C179.059 36.4373 179.934 35.52 180.574 34.368C181.214 33.216 181.534 31.8933 181.534 30.4V13.76H190.43V45.76H181.534V34.688C180.936 38.2293 179.592 41.0667 177.502 43.2C175.454 45.3333 172.936 46.4 169.95 46.4Z" fill="black"/>
<path d="M217.832 59.2C213.906 59.2 210.536 58.7947 207.72 57.984C204.946 57.216 202.813 56.0853 201.32 54.592C199.869 53.1413 199.144 51.3493 199.144 49.216C199.144 46.9547 200.168 44.928 202.216 43.136C204.306 41.344 207.677 40.2347 212.328 39.808C207.037 39.296 203.154 38.4 200.68 37.12C198.205 35.7973 196.968 34.048 196.968 31.872C196.968 30.848 197.33 29.9733 198.056 29.248C198.781 28.5227 199.72 28.16 200.872 28.16C201.085 28.16 201.298 28.1813 201.512 28.224C201.725 28.2667 201.938 28.3093 202.152 28.352C202.45 28.4373 202.77 28.544 203.112 28.672C203.453 28.7573 203.794 28.9067 204.136 29.12C202.002 27.2 200.936 25.216 200.936 23.168C200.936 20.608 202.024 18.4747 204.2 16.768C206.376 15.0187 209.597 13.9093 213.864 13.44V5.44H223.144V13.44C225.917 13.7387 228.306 14.3573 230.312 15.296C232.317 16.192 233.853 17.3867 234.92 18.88C235.986 20.3307 236.52 22.016 236.52 23.936C236.52 26.112 235.794 27.9893 234.344 29.568C232.893 31.104 230.824 32.2987 228.136 33.152C225.448 33.9627 222.312 34.368 218.728 34.368C216.552 34.368 214.632 34.2187 212.968 33.92C211.346 33.5787 210.002 33.1947 208.936 32.768C207.912 32.3413 206.781 31.808 205.544 31.168C204.477 30.5707 203.602 30.144 202.92 29.888C202.237 29.632 201.49 29.504 200.68 29.504C199.954 29.504 199.357 29.7387 198.888 30.208C198.461 30.6347 198.248 31.168 198.248 31.808C198.248 33.1307 198.866 34.2613 200.104 35.2C201.384 36.1387 203.176 36.8853 205.48 37.44C207.826 37.9947 210.621 38.3787 213.864 38.592C214.589 38.6773 215.336 38.7413 216.104 38.784C216.914 38.784 217.746 38.784 218.6 38.784C224.445 38.8267 228.946 39.6587 232.104 41.28C235.304 42.8587 236.904 45.2267 236.904 48.384C236.904 50.6027 236.136 52.5227 234.6 54.144C233.064 55.7653 230.845 57.0027 227.944 57.856C225.085 58.752 221.714 59.2 217.832 59.2ZM217.96 52.544C219.88 52.544 221.565 52.2667 223.016 51.712C224.466 51.2 225.597 50.4747 226.408 49.536C227.218 48.64 227.624 47.5947 227.624 46.4C227.624 44.48 226.749 42.9653 225 41.856C223.293 40.704 220.946 40.128 217.96 40.128C216.082 40.128 214.418 40.384 212.968 40.896C211.517 41.408 210.386 42.1547 209.576 43.136C208.765 44.0747 208.36 45.1627 208.36 46.4C208.36 47.5947 208.765 48.64 209.576 49.536C210.386 50.4747 211.517 51.2 212.968 51.712C214.418 52.2667 216.082 52.544 217.96 52.544ZM218.728 33.216C221.33 33.216 223.442 32.576 225.064 31.296C226.728 30.016 227.56 28.352 227.56 26.304C227.56 24.2133 226.728 22.5067 225.064 21.184C223.442 19.8187 221.33 19.136 218.728 19.136C216.082 19.136 213.928 19.8187 212.264 21.184C210.642 22.5067 209.832 24.2133 209.832 26.304C209.832 28.352 210.642 30.016 212.264 31.296C213.885 32.576 216.04 33.216 218.728 33.216Z" fill="black"/>
</svg>
