<svg width="33" height="45" viewBox="0 0 33 45" fill="none" xmlns="http://www.w3.org/2000/svg">
<path d="M16.6446 0.755442C20.3767 0.47477 24.1572 2.93906 25.8687 6.14765C27.971 10.0889 27.1333 13.3451 25.2444 17.1912C23.621 20.4967 21.5286 23.4896 19.1374 26.2874L18.3464 27.22C18.1107 27.494 17.8481 27.8156 17.5202 27.9818L17.4791 28.0019C17.3462 28.0675 17.2069 28.0936 17.0629 28.1239C16.5294 28.132 16.2321 28.0356 15.8277 27.6513C15.0981 26.9581 14.4647 26.1322 13.8323 25.3513L10.4953 20.7276C8.73677 17.9948 6.29611 13.6313 6.5821 10.2271C7.01278 5.10096 11.4681 0.848908 16.6446 0.755442ZM16.5617 5.69641C11.8138 6.13656 10.0382 11.856 13.6672 14.791C14.6404 15.5781 15.894 15.949 17.1406 15.8791C19.5459 15.7607 21.638 13.9049 21.9596 11.5112C22.3815 8.37035 19.8699 5.49344 16.6053 5.69277L16.5617 5.69641Z" fill="black"/>
<path d="M5.48491 42.2112C5.38143 41.9373 5.28404 41.6695 5.19274 41.4077C5.10144 41.1399 5.00709 40.869 4.9097 40.5951H2.04281L1.46761 42.2112H0.545454C0.788927 41.5416 1.01718 40.9238 1.23022 40.3577C1.44326 39.7856 1.65021 39.2439 1.85108 38.7326C2.05803 38.2213 2.26194 37.7343 2.4628 37.2717C2.66367 36.803 2.87366 36.3404 3.09279 35.8839H3.90538C4.1245 36.3404 4.3345 36.803 4.53536 37.2717C4.73623 37.7343 4.93709 38.2213 5.13796 38.7326C5.34491 39.2439 5.5549 39.7856 5.76794 40.3577C5.98098 40.9238 6.20924 41.5416 6.45271 42.2112H5.48491ZM4.65406 39.8647C4.45928 39.3352 4.2645 38.8239 4.06972 38.3308C3.88103 37.8317 3.68321 37.3539 3.47626 36.8974C3.26322 37.3539 3.05931 37.8317 2.86453 38.3308C2.67584 38.8239 2.48715 39.3352 2.29846 39.8647H4.65406ZM6.91336 41.5173H7.42465C7.62552 41.2251 7.78377 40.9238 7.89942 40.6134C8.02116 40.303 8.11246 39.9834 8.17333 39.6547C8.2342 39.3199 8.27376 38.973 8.29202 38.6139C8.31028 38.2487 8.32246 37.8652 8.32854 37.4635H11.4419V41.5173H12.0811V43.5351H11.2776V42.2112H7.71682V43.5351H6.91336V41.5173ZM10.5928 41.5173V38.1756H9.10461C9.09852 38.4617 9.08331 38.7508 9.05896 39.043C9.03461 39.3291 8.99505 39.6152 8.94027 39.9012C8.88549 40.1812 8.80636 40.4582 8.70288 40.7321C8.60549 40.9999 8.48071 41.2616 8.32854 41.5173H10.5928ZM16.295 39.8465C16.295 39.2926 16.1581 38.8665 15.8842 38.5682C15.6103 38.27 15.245 38.1208 14.7885 38.1208C14.5329 38.1208 14.332 38.13 14.1859 38.1482C14.0459 38.1665 13.9333 38.1878 13.8481 38.2121V41.2069C13.9516 41.2921 14.1007 41.3742 14.2955 41.4534C14.4903 41.5325 14.7033 41.5721 14.9346 41.5721C15.1781 41.5721 15.385 41.5295 15.5555 41.4442C15.732 41.3529 15.875 41.2312 15.9846 41.079C16.0942 40.9208 16.1733 40.7382 16.222 40.5312C16.2707 40.3182 16.295 40.0899 16.295 39.8465ZM17.1807 39.8465C17.1807 40.2056 17.132 40.5373 17.0346 40.8416C16.9433 41.146 16.8063 41.4077 16.6237 41.6268C16.4411 41.846 16.2159 42.0164 15.9481 42.1381C15.6863 42.2599 15.385 42.3207 15.0442 42.3207C14.7703 42.3207 14.5268 42.2842 14.3138 42.2112C14.1068 42.1381 13.9516 42.0681 13.8481 42.0012V43.9003H12.999V37.6095C13.1999 37.5609 13.4494 37.5091 13.7477 37.4543C14.052 37.3935 14.402 37.363 14.7977 37.363C15.1629 37.363 15.4916 37.4209 15.7837 37.5365C16.0759 37.6522 16.3255 37.8165 16.5324 38.0295C16.7394 38.2426 16.8976 38.5043 17.0072 38.8147C17.1228 39.1191 17.1807 39.463 17.1807 39.8465ZM18.1107 39.8465C18.1107 39.4265 18.1716 39.0613 18.2933 38.7508C18.4151 38.4343 18.5764 38.1726 18.7772 37.9656C18.9781 37.7587 19.2094 37.6035 19.4711 37.5C19.7329 37.3965 20.0007 37.3448 20.2746 37.3448C20.9137 37.3448 21.4037 37.5456 21.7446 37.9474C22.0854 38.343 22.2558 38.9486 22.2558 39.7643C22.2558 39.8008 22.2558 39.8495 22.2558 39.9104C22.2558 39.9651 22.2528 40.0169 22.2467 40.0656H18.9964C19.0329 40.5586 19.1759 40.933 19.4255 41.1886C19.675 41.4442 20.0646 41.5721 20.5941 41.5721C20.8924 41.5721 21.142 41.5477 21.3428 41.499C21.5498 41.4442 21.705 41.3925 21.8085 41.3438L21.9272 42.056C21.8237 42.1107 21.6411 42.1686 21.3793 42.2294C21.1237 42.2903 20.8315 42.3207 20.5028 42.3207C20.0889 42.3207 19.7298 42.2599 19.4255 42.1381C19.1272 42.0103 18.8807 41.8368 18.6859 41.6177C18.4911 41.3986 18.3451 41.1399 18.2477 40.8416C18.1564 40.5373 18.1107 40.2056 18.1107 39.8465ZM21.3702 39.3808C21.3763 38.9973 21.2789 38.6839 21.078 38.4404C20.8833 38.1908 20.6124 38.0661 20.2655 38.0661C20.0707 38.0661 19.8972 38.1056 19.745 38.1848C19.5989 38.2578 19.4742 38.3552 19.3707 38.4769C19.2672 38.5987 19.185 38.7387 19.1242 38.8969C19.0694 39.0552 19.0329 39.2165 19.0146 39.3808H21.3702ZM25.539 42.3207C25.1555 42.3207 24.8177 42.2599 24.5256 42.1381C24.2395 42.0164 23.996 41.846 23.7951 41.6268C23.6004 41.4077 23.4543 41.149 23.3569 40.8508C23.2595 40.5464 23.2108 40.2117 23.2108 39.8465C23.2108 39.4812 23.2625 39.1465 23.366 38.8421C23.4756 38.5378 23.6278 38.2761 23.8225 38.0569C24.0173 37.8317 24.2547 37.6582 24.5347 37.5365C24.8208 37.4087 25.1373 37.3448 25.4842 37.3448C25.6973 37.3448 25.9103 37.363 26.1233 37.3996C26.3364 37.4361 26.5403 37.4939 26.7351 37.573L26.5433 38.2943C26.4155 38.2334 26.2664 38.1848 26.096 38.1482C25.9316 38.1117 25.7551 38.0935 25.5664 38.0935C25.0916 38.0935 24.7264 38.2426 24.4708 38.5408C24.2212 38.8391 24.0964 39.2743 24.0964 39.8465C24.0964 40.1021 24.1238 40.3364 24.1786 40.5495C24.2395 40.7625 24.3308 40.9451 24.4525 41.0973C24.5803 41.2495 24.7416 41.3682 24.9364 41.4534C25.1312 41.5325 25.3686 41.5721 25.6486 41.5721C25.8738 41.5721 26.0777 41.5508 26.2603 41.5082C26.4429 41.4655 26.5859 41.4199 26.6894 41.3712L26.8081 42.0834C26.7594 42.1138 26.6894 42.1442 26.5981 42.1747C26.5068 42.199 26.4033 42.2203 26.2877 42.2386C26.172 42.2629 26.0473 42.2812 25.9134 42.2934C25.7855 42.3116 25.6608 42.3207 25.539 42.3207ZM29.3266 41.5995C29.5275 41.5995 29.704 41.5964 29.8562 41.5903C30.0144 41.5782 30.1453 41.5599 30.2488 41.5355V40.1204C30.1879 40.0899 30.0875 40.0656 29.9475 40.0473C29.8136 40.023 29.6492 40.0108 29.4545 40.0108C29.3266 40.0108 29.1897 40.0199 29.0436 40.0382C28.9036 40.0564 28.7727 40.096 28.651 40.1569C28.5353 40.2117 28.438 40.2908 28.3588 40.3943C28.2797 40.4917 28.2401 40.6225 28.2401 40.7869C28.2401 41.0912 28.3375 41.3042 28.5323 41.426C28.7271 41.5416 28.9919 41.5995 29.3266 41.5995ZM29.2536 37.3448C29.5945 37.3448 29.8805 37.3904 30.1118 37.4817C30.3492 37.5669 30.5379 37.6917 30.6779 37.8561C30.824 38.0143 30.9275 38.2061 30.9883 38.4313C31.0492 38.6504 31.0796 38.8939 31.0796 39.1617V42.129C31.0066 42.1412 30.9031 42.1594 30.7692 42.1838C30.6414 42.2021 30.4953 42.2203 30.331 42.2386C30.1666 42.2568 29.9871 42.272 29.7923 42.2842C29.6036 42.3025 29.4149 42.3116 29.2262 42.3116C28.9584 42.3116 28.7119 42.2842 28.4867 42.2294C28.2614 42.1747 28.0667 42.0894 27.9023 41.9738C27.738 41.8521 27.6101 41.6938 27.5188 41.499C27.4275 41.3042 27.3819 41.0699 27.3819 40.796C27.3819 40.5343 27.4336 40.3091 27.5371 40.1204C27.6467 39.9317 27.7928 39.7795 27.9754 39.6638C28.158 39.5482 28.371 39.463 28.6145 39.4082C28.8579 39.3534 29.1136 39.326 29.3814 39.326C29.4666 39.326 29.5549 39.3321 29.6462 39.3443C29.7375 39.3504 29.8227 39.3626 29.9018 39.3808C29.9871 39.393 30.0601 39.4052 30.121 39.4173C30.1818 39.4295 30.2244 39.4386 30.2488 39.4447V39.2073C30.2488 39.0673 30.2336 38.9304 30.2031 38.7965C30.1727 38.6565 30.1179 38.5347 30.0388 38.4313C29.9597 38.3217 29.8501 38.2365 29.7101 38.1756C29.5762 38.1087 29.3997 38.0752 29.1805 38.0752C28.9006 38.0752 28.654 38.0965 28.441 38.1391C28.234 38.1756 28.0788 38.2152 27.9754 38.2578L27.8749 37.5548C27.9845 37.5061 28.1671 37.4604 28.4227 37.4178C28.6784 37.3691 28.9553 37.3448 29.2536 37.3448Z" fill="black"/>
</svg>
