<svg width="30" height="45" viewBox="0 0 30 45" fill="none" xmlns="http://www.w3.org/2000/svg">
<path d="M14.6473 13.1691C16.3399 13.1691 17.712 11.8331 17.712 10.185C17.712 8.53696 16.3399 7.20093 14.6473 7.20093C12.9547 7.20093 11.5825 8.53696 11.5825 10.185C11.5825 11.8331 12.9547 13.1691 14.6473 13.1691Z" fill="black"/>
<path d="M18.8327 14.2224H10.4613C9.91635 14.2224 9.47388 14.6527 9.47388 15.1839V21.2512C10.9815 22.1634 12.755 22.6993 14.6612 22.6993C16.5552 22.6993 18.3179 22.1698 19.8207 21.2677V15.1839C19.8207 14.6532 19.3783 14.2224 18.8327 14.2224Z" fill="black"/>
<path d="M14.8115 0.353271C6.82108 0.353271 0.34375 6.83054 0.34375 14.8209C0.34375 22.8112 6.82108 29.2885 14.8115 29.2885C22.8019 29.2885 29.2793 22.8112 29.2793 14.8209C29.2793 6.83054 22.8019 0.353271 14.8115 0.353271ZM14.829 26.7832C8.18407 26.7832 2.79724 21.3964 2.79724 14.7515C2.79724 8.1067 8.18407 2.71993 14.829 2.71993C21.4739 2.71993 26.8607 8.1067 26.8607 14.7515C26.8607 21.3964 21.4739 26.7832 14.829 26.7832Z" fill="black"/>
<path d="M4.35803 42.6463C4.23021 42.6463 4.09021 42.6433 3.93804 42.6372C3.79196 42.6311 3.64283 42.622 3.49066 42.6098C3.34457 42.5976 3.19849 42.5824 3.05241 42.5642C2.90632 42.5459 2.77241 42.5216 2.65068 42.4911V36.3556C2.77241 36.3252 2.90632 36.3008 3.05241 36.2826C3.19849 36.2643 3.34457 36.2491 3.49066 36.2369C3.64283 36.2247 3.79196 36.2156 3.93804 36.2095C4.08412 36.2034 4.22108 36.2004 4.3489 36.2004C4.71411 36.2004 5.05497 36.2278 5.37148 36.2826C5.69409 36.3373 5.97104 36.4317 6.20234 36.5656C6.43972 36.6934 6.62537 36.8639 6.75928 37.0769C6.89319 37.2899 6.96014 37.5517 6.96014 37.8621C6.96014 38.209 6.87797 38.4951 6.71363 38.7203C6.54928 38.9395 6.33016 39.1038 6.05625 39.2134C6.42755 39.3229 6.72276 39.4964 6.94188 39.7338C7.16101 39.9712 7.27057 40.306 7.27057 40.7381C7.27057 41.3711 7.03623 41.849 6.56754 42.1716C6.10495 42.4881 5.36844 42.6463 4.35803 42.6463ZM3.52718 39.6425V41.8703C3.59413 41.8764 3.67326 41.8824 3.76457 41.8885C3.84369 41.8946 3.935 41.9007 4.03847 41.9068C4.14803 41.9068 4.27281 41.9068 4.41281 41.9068C4.67454 41.9068 4.92106 41.8916 5.15236 41.8611C5.38975 41.8246 5.5967 41.7637 5.77321 41.6785C5.94973 41.5933 6.08973 41.4746 6.19321 41.3225C6.30277 41.1703 6.35755 40.9785 6.35755 40.7472C6.35755 40.5403 6.31798 40.3668 6.23886 40.2268C6.15973 40.0807 6.04408 39.9651 5.89191 39.8799C5.74582 39.7947 5.56931 39.7338 5.36235 39.6973C5.1554 39.6608 4.9241 39.6425 4.66846 39.6425H3.52718ZM3.52718 38.9303H4.45846C4.67759 38.9303 4.88454 38.9151 5.07932 38.8847C5.2741 38.8542 5.44148 38.7995 5.58148 38.7203C5.72756 38.6412 5.84017 38.5377 5.9193 38.4099C6.00451 38.2821 6.04712 38.1208 6.04712 37.926C6.04712 37.7434 6.00451 37.5912 5.9193 37.4695C5.83408 37.3417 5.71539 37.2412 5.56322 37.1682C5.41714 37.0891 5.24366 37.0312 5.0428 36.9947C4.84193 36.9582 4.62889 36.9399 4.40368 36.9399C4.17847 36.9399 4.00195 36.943 3.87413 36.9491C3.7463 36.9552 3.63066 36.9643 3.52718 36.9765V38.9303ZM12.6536 40.2177C12.6536 40.5951 12.5988 40.9359 12.4892 41.2403C12.3796 41.5446 12.2244 41.8064 12.0236 42.0255C11.8288 42.2446 11.5944 42.415 11.3205 42.5368C11.0466 42.6524 10.7484 42.7102 10.4258 42.7102C10.1032 42.7102 9.80492 42.6524 9.53102 42.5368C9.25711 42.415 9.01972 42.2446 8.81886 42.0255C8.62408 41.8064 8.47191 41.5446 8.36235 41.2403C8.25278 40.9359 8.198 40.5951 8.198 40.2177C8.198 39.8464 8.25278 39.5086 8.36235 39.2042C8.47191 38.8938 8.62408 38.629 8.81886 38.4099C9.01972 38.1908 9.25711 38.0234 9.53102 37.9077C9.80492 37.786 10.1032 37.7251 10.4258 37.7251C10.7484 37.7251 11.0466 37.786 11.3205 37.9077C11.5944 38.0234 11.8288 38.1908 12.0236 38.4099C12.2244 38.629 12.3796 38.8938 12.4892 39.2042C12.5988 39.5086 12.6536 39.8464 12.6536 40.2177ZM11.7679 40.2177C11.7679 39.6821 11.6462 39.259 11.4027 38.9486C11.1653 38.6321 10.8397 38.4738 10.4258 38.4738C10.0119 38.4738 9.68319 38.6321 9.43971 38.9486C9.20233 39.259 9.08363 39.6821 9.08363 40.2177C9.08363 40.7533 9.20233 41.1794 9.43971 41.4959C9.68319 41.8064 10.0119 41.9616 10.4258 41.9616C10.8397 41.9616 11.1653 41.8064 11.4027 41.4959C11.6462 41.1794 11.7679 40.7533 11.7679 40.2177ZM17.8381 37.8438V42.5916H17.0164V38.976C16.8338 39.2073 16.6329 39.4781 16.4138 39.7886C16.1947 40.099 15.9755 40.4216 15.7564 40.7564C15.5373 41.0851 15.3273 41.4107 15.1264 41.7333C14.9256 42.0559 14.7521 42.342 14.606 42.5916H13.8482V37.8438H14.6699V41.2585C14.8282 40.9968 15.0077 40.7107 15.2086 40.4003C15.4095 40.0838 15.6164 39.7734 15.8294 39.469C16.0486 39.1586 16.2647 38.8634 16.4777 38.5834C16.6968 38.2973 16.9007 38.0508 17.0894 37.8438H17.8381ZM15.8477 37.0769C15.4642 37.0769 15.1508 36.9795 14.9073 36.7847C14.6699 36.59 14.5269 36.3191 14.4782 35.9721L15.1264 35.7987C15.1751 35.9934 15.2573 36.1517 15.3729 36.2734C15.4886 36.3952 15.6468 36.456 15.8477 36.456C16.0486 36.456 16.2068 36.3952 16.3225 36.2734C16.4381 36.1517 16.5203 35.9934 16.569 35.7987L17.2081 35.9721C17.1594 36.3191 17.0164 36.59 16.779 36.7847C16.5416 36.9795 16.2312 37.0769 15.8477 37.0769ZM22.6468 37.8438V38.556H21.1038V42.5916H20.2547V38.556H18.7117V37.8438H22.6468ZM27.5122 37.8438V42.5916H26.6905V38.976C26.5079 39.2073 26.307 39.4781 26.0879 39.7886C25.8688 40.099 25.6496 40.4216 25.4305 40.7564C25.2114 41.0851 25.0014 41.4107 24.8005 41.7333C24.5997 42.0559 24.4262 42.342 24.2801 42.5916H23.5223V37.8438H24.344V41.2585C24.5023 40.9968 24.6818 40.7107 24.8827 40.4003C25.0836 40.0838 25.2905 39.7734 25.5036 39.469C25.7227 39.1586 25.9388 38.8634 26.1518 38.5834C26.3709 38.2973 26.5748 38.0508 26.7635 37.8438H27.5122Z" fill="black"/>
</svg>
