<svg width="124" height="44" viewBox="0 0 124 44" fill="none" xmlns="http://www.w3.org/2000/svg">
<rect width="124" height="44" rx="14" fill="#00D94A"/>
<path d="M56.952 28C56.6747 27.5733 56.3547 27.1253 55.992 26.656C55.6293 26.1867 55.2453 25.7333 54.84 25.296C54.4453 24.8587 54.0347 24.4427 53.608 24.048C53.1813 23.6533 52.76 23.312 52.344 23.024V28H50.328V16.912H52.344V21.488C52.696 21.136 53.064 20.7627 53.448 20.368C53.832 19.9627 54.2107 19.5573 54.584 19.152C54.968 18.736 55.3307 18.336 55.672 17.952C56.0133 17.568 56.3227 17.2213 56.6 16.912H59.016C58.664 17.3173 58.2907 17.7387 57.896 18.176C57.5013 18.6133 57.096 19.056 56.68 19.504C56.264 19.9413 55.8427 20.3787 55.416 20.816C55 21.2533 54.5893 21.6693 54.184 22.064C54.632 22.4053 55.0853 22.8053 55.544 23.264C56.0133 23.712 56.472 24.1973 56.92 24.72C57.368 25.232 57.7947 25.7707 58.2 26.336C58.616 26.8907 58.9947 27.4453 59.336 28H56.952ZM63.5979 26.64C64.1952 26.64 64.6485 26.608 64.9579 26.544V24.4C64.8512 24.368 64.6965 24.336 64.4939 24.304C64.2912 24.272 64.0672 24.256 63.8219 24.256C63.6085 24.256 63.3899 24.272 63.1659 24.304C62.9525 24.336 62.7552 24.3947 62.5739 24.48C62.4032 24.5653 62.2645 24.688 62.1579 24.848C62.0512 24.9973 61.9979 25.1893 61.9979 25.424C61.9979 25.8827 62.1419 26.2027 62.4299 26.384C62.7179 26.5547 63.1072 26.64 63.5979 26.64ZM63.4379 19.424C64.0779 19.424 64.6165 19.504 65.0539 19.664C65.4912 19.824 65.8379 20.048 66.0939 20.336C66.3605 20.624 66.5472 20.976 66.6539 21.392C66.7712 21.7973 66.8299 22.2453 66.8299 22.736V27.808C66.5312 27.872 66.0779 27.9467 65.4699 28.032C64.8725 28.128 64.1952 28.176 63.4379 28.176C62.9365 28.176 62.4779 28.128 62.0619 28.032C61.6459 27.936 61.2885 27.7813 60.9899 27.568C60.7019 27.3547 60.4725 27.0773 60.3019 26.736C60.1419 26.3947 60.0619 25.9733 60.0619 25.472C60.0619 24.992 60.1525 24.5867 60.3339 24.256C60.5259 23.9253 60.7819 23.6587 61.1019 23.456C61.4219 23.2427 61.7899 23.0933 62.2059 23.008C62.6325 22.912 63.0752 22.864 63.5339 22.864C63.7472 22.864 63.9712 22.88 64.2059 22.912C64.4405 22.9333 64.6912 22.976 64.9579 23.04V22.72C64.9579 22.496 64.9312 22.2827 64.8779 22.08C64.8245 21.8773 64.7285 21.7013 64.5899 21.552C64.4619 21.392 64.2859 21.2693 64.0619 21.184C63.8485 21.0987 63.5765 21.056 63.2459 21.056C62.7979 21.056 62.3872 21.088 62.0139 21.152C61.6405 21.216 61.3365 21.2907 61.1019 21.376L60.8619 19.808C61.1072 19.7227 61.4645 19.6373 61.9339 19.552C62.4032 19.4667 62.9045 19.424 63.4379 19.424ZM75.5048 21.248H72.8008V28H70.8648V21.248H68.1768V19.632H75.5048V21.248ZM79.8948 26.64C80.4921 26.64 80.9454 26.608 81.2548 26.544V24.4C81.1481 24.368 80.9934 24.336 80.7908 24.304C80.5881 24.272 80.3641 24.256 80.1188 24.256C79.9054 24.256 79.6868 24.272 79.4628 24.304C79.2494 24.336 79.0521 24.3947 78.8708 24.48C78.7001 24.5653 78.5614 24.688 78.4548 24.848C78.3481 24.9973 78.2948 25.1893 78.2948 25.424C78.2948 25.8827 78.4388 26.2027 78.7268 26.384C79.0148 26.5547 79.4041 26.64 79.8948 26.64ZM79.7348 19.424C80.3748 19.424 80.9134 19.504 81.3508 19.664C81.7881 19.824 82.1348 20.048 82.3908 20.336C82.6574 20.624 82.8441 20.976 82.9508 21.392C83.0681 21.7973 83.1268 22.2453 83.1268 22.736V27.808C82.8281 27.872 82.3748 27.9467 81.7668 28.032C81.1694 28.128 80.4921 28.176 79.7348 28.176C79.2334 28.176 78.7748 28.128 78.3588 28.032C77.9428 27.936 77.5854 27.7813 77.2868 27.568C76.9988 27.3547 76.7694 27.0773 76.5988 26.736C76.4388 26.3947 76.3588 25.9733 76.3588 25.472C76.3588 24.992 76.4494 24.5867 76.6308 24.256C76.8228 23.9253 77.0788 23.6587 77.3988 23.456C77.7188 23.2427 78.0868 23.0933 78.5028 23.008C78.9294 22.912 79.3721 22.864 79.8307 22.864C80.0441 22.864 80.2681 22.88 80.5028 22.912C80.7374 22.9333 80.9881 22.976 81.2548 23.04V22.72C81.2548 22.496 81.2281 22.2827 81.1748 22.08C81.1214 21.8773 81.0254 21.7013 80.8868 21.552C80.7588 21.392 80.5828 21.2693 80.3588 21.184C80.1454 21.0987 79.8734 21.056 79.5428 21.056C79.0948 21.056 78.6841 21.088 78.3108 21.152C77.9374 21.216 77.6334 21.2907 77.3988 21.376L77.1588 19.808C77.4041 19.7227 77.7614 19.6373 78.2308 19.552C78.7001 19.4667 79.2014 19.424 79.7348 19.424ZM88.7776 21.232C88.767 21.7013 88.751 22.192 88.7296 22.704C88.7083 23.2053 88.655 23.7013 88.5696 24.192C88.495 24.6827 88.3723 25.152 88.2016 25.6C88.031 26.048 87.791 26.4533 87.4816 26.816C87.183 27.168 86.8043 27.4667 86.3456 27.712C85.8976 27.9467 85.3483 28.096 84.6976 28.16L84.4256 26.544C84.9696 26.4373 85.391 26.2667 85.6896 26.032C85.9883 25.7867 86.2176 25.4773 86.3776 25.104C86.5056 24.8267 86.6016 24.512 86.6656 24.16C86.7403 23.808 86.7936 23.44 86.8256 23.056C86.8683 22.6613 86.895 22.2613 86.9056 21.856C86.9163 21.4507 86.9216 21.056 86.9216 20.672V19.632H92.8416V28H90.9056V21.232H88.7776ZM102.878 23.808C102.878 24.4693 102.782 25.072 102.59 25.616C102.398 26.16 102.126 26.624 101.774 27.008C101.422 27.392 100.995 27.6907 100.494 27.904C100.003 28.1173 99.4595 28.224 98.8621 28.224C98.2648 28.224 97.7208 28.1173 97.2301 27.904C96.7395 27.6907 96.3181 27.392 95.9661 27.008C95.6141 26.624 95.3368 26.16 95.1341 25.616C94.9421 25.072 94.8461 24.4693 94.8461 23.808C94.8461 23.1467 94.9421 22.5493 95.1341 22.016C95.3368 21.472 95.6141 21.008 95.9661 20.624C96.3288 20.24 96.7555 19.9467 97.2461 19.744C97.7368 19.5307 98.2755 19.424 98.8621 19.424C99.4488 19.424 99.9875 19.5307 100.478 19.744C100.979 19.9467 101.406 20.24 101.758 20.624C102.11 21.008 102.382 21.472 102.574 22.016C102.777 22.5493 102.878 23.1467 102.878 23.808ZM100.894 23.808C100.894 22.976 100.713 22.32 100.35 21.84C99.9981 21.3493 99.5021 21.104 98.8621 21.104C98.2221 21.104 97.7208 21.3493 97.3581 21.84C97.0061 22.32 96.8301 22.976 96.8301 23.808C96.8301 24.6507 97.0061 25.3173 97.3581 25.808C97.7208 26.2987 98.2221 26.544 98.8621 26.544C99.5021 26.544 99.9981 26.2987 100.35 25.808C100.713 25.3173 100.894 24.6507 100.894 23.808ZM110.425 21.232H106.809V28H104.873V19.632H110.425V21.232Z" fill="black"/>
<path d="M19 14H39" stroke="black" stroke-width="2" stroke-linecap="round"/>
<path d="M19 22H39" stroke="black" stroke-width="2" stroke-linecap="round"/>
<path d="M19 30H32" stroke="black" stroke-width="2" stroke-linecap="round"/>
<circle cx="14" cy="14" r="1" fill="black"/>
<circle cx="14" cy="22" r="1" fill="black"/>
<circle cx="14" cy="30" r="1" fill="black"/>
</svg>
