<svg width="38" height="43" viewBox="0 0 38 43" fill="none" xmlns="http://www.w3.org/2000/svg">
<path d="M7.51423 10.0052C7.49848 9.8487 7.71786 9.63079 7.81714 9.51019L9.35416 7.73295L13.7914 2.32301C14.0937 1.94008 14.3961 1.52874 14.7483 1.19016C15.5928 0.378271 16.922 1.27319 16.5921 2.31018L16.5822 2.34222C16.4777 2.66192 16.1592 2.93299 15.9369 3.18077L10.2479 9.81679C10.2092 9.8712 10.1588 9.93114 10.1463 9.99746L7.51423 10.0052Z" fill="black"/>
<path d="M27.1155 10.0052C26.6225 9.22175 26.0474 8.51664 25.4879 7.79324L22.0314 3.4006C21.4764 2.72089 20.6669 1.83162 21.723 1.07275C22.7312 0.348334 23.415 1.79497 23.947 2.50383L29.1148 9.28946C29.2706 9.49644 29.5132 9.73824 29.5781 10.0038L27.1155 10.0052Z" fill="black"/>
<path d="M10.3775 10.0166L27.4381 10.017L29.9879 10.0166L31.6683 10.0162C32.0393 10.0163 32.4677 9.97446 32.8258 10.0538C33.5016 10.2034 34.0145 10.7022 34.1205 11.293L34.1256 11.3202C34.2685 12.1411 33.5146 12.902 32.5842 13.0185C32.2946 13.0548 31.9774 13.0381 31.684 13.04L6.18214 13.0388C5.87917 13.0397 5.54042 13.0661 5.24172 13.0286C3.27831 12.782 3.1789 10.4211 5.07253 10.0468C5.38822 9.98439 5.78464 10.0177 6.10942 10.0175L7.89485 10.017L10.3775 10.0166Z" fill="black"/>
<path d="M5.9917 13.0554L31.0998 13.0486C31.0862 13.0614 31.0946 13.0554 31.0706 13.0672L31.0498 13.0773C31.053 13.4323 30.9369 13.8138 30.8694 14.1609L30.4256 16.2202L29.2228 21.2656C28.8273 23.1305 28.6848 25.0315 26.6138 25.7439C26.2659 25.8635 25.8667 25.9534 25.5009 25.9716L11.8831 25.9831C10.3708 25.9825 9.00874 25.2596 8.42272 23.7005C8.29657 23.3649 8.22053 23.0145 8.13894 22.665L6.15661 14.0405C6.08563 13.7114 6.00614 13.3946 5.9917 13.0554Z" fill="black"/>
<rect x="9.7959" y="15.0703" width="2.28256" height="8.18146" rx="1.14128" transform="rotate(-12.6516 9.7959 15.0703)" fill="white"/>
<rect width="2.28256" height="8.18146" rx="1.14128" transform="matrix(-0.97572 -0.219021 -0.219021 0.97572 27.5103 15.0703)" fill="#D9D9D9"/>
<rect width="2.28256" height="8.18146" rx="1.14128" transform="matrix(-0.97572 -0.219021 -0.219021 0.97572 27.5103 15.0703)" fill="white"/>
<rect width="2.28256" height="7.60852" rx="1.14128" transform="matrix(1 0 0 -1 17.4045 22.9396)" fill="white"/>
<path d="M6.13478 33.7426C5.94608 33.9495 5.73305 34.1808 5.49566 34.4365C5.25827 34.686 5.00871 34.9447 4.74698 35.2125C4.49134 35.4743 4.23569 35.733 3.98004 35.9886C3.7244 36.2443 3.48397 36.4816 3.25876 36.7008C3.52049 36.8834 3.79744 37.1086 4.08961 37.3764C4.38177 37.6442 4.66785 37.9303 4.94785 38.2346C5.22784 38.539 5.48957 38.8494 5.73305 39.1659C5.98261 39.4824 6.18956 39.7837 6.3539 40.0698H5.31306C5.13045 39.7837 4.92046 39.4977 4.68307 39.2116C4.44568 38.9194 4.19308 38.6425 3.92526 38.3807C3.66353 38.1129 3.39571 37.8664 3.1218 37.6412C2.85398 37.416 2.59225 37.2242 2.3366 37.066V40.0698H1.45097V33.7426H2.3366V36.5364C2.54964 36.3356 2.78398 36.1104 3.03963 35.8608C3.29528 35.6051 3.54788 35.3495 3.79744 35.0939C4.047 34.8382 4.28134 34.5947 4.50047 34.3634C4.72568 34.126 4.91437 33.9191 5.06654 33.7426H6.13478ZM11.1596 37.696C11.1596 38.0733 11.1048 38.4142 10.9953 38.7186C10.8857 39.0229 10.7305 39.2846 10.5296 39.5038C10.3348 39.7229 10.1005 39.8933 9.8266 40.015C9.55269 40.1307 9.25444 40.1885 8.93183 40.1885C8.60923 40.1885 8.31098 40.1307 8.03707 40.015C7.76317 39.8933 7.52578 39.7229 7.32491 39.5038C7.13014 39.2846 6.97797 39.0229 6.8684 38.7186C6.75884 38.4142 6.70406 38.0733 6.70406 37.696C6.70406 37.3247 6.75884 36.9869 6.8684 36.6825C6.97797 36.3721 7.13014 36.1073 7.32491 35.8882C7.52578 35.6691 7.76317 35.5017 8.03707 35.386C8.31098 35.2643 8.60923 35.2034 8.93183 35.2034C9.25444 35.2034 9.55269 35.2643 9.8266 35.386C10.1005 35.5017 10.3348 35.6691 10.5296 35.8882C10.7305 36.1073 10.8857 36.3721 10.9953 36.6825C11.1048 36.9869 11.1596 37.3247 11.1596 37.696ZM10.274 37.696C10.274 37.1603 10.1522 36.7373 9.90877 36.4269C9.67138 36.1104 9.34574 35.9521 8.93183 35.9521C8.51793 35.9521 8.18924 36.1104 7.94577 36.4269C7.70838 36.7373 7.58969 37.1603 7.58969 37.696C7.58969 38.2316 7.70838 38.6577 7.94577 38.9742C8.18924 39.2846 8.51793 39.4398 8.93183 39.4398C9.34574 39.4398 9.67138 39.2846 9.90877 38.9742C10.1522 38.6577 10.274 38.2316 10.274 37.696ZM15.6503 37.7051C15.6503 37.1512 15.5133 36.7251 15.2394 36.4269C14.9655 36.1286 14.6003 35.9795 14.1438 35.9795C13.8881 35.9795 13.6873 35.9886 13.5412 36.0069C13.4012 36.0251 13.2886 36.0464 13.2034 36.0708V39.0655C13.3068 39.1507 13.456 39.2329 13.6507 39.312C13.8455 39.3911 14.0585 39.4307 14.2898 39.4307C14.5333 39.4307 14.7403 39.3881 14.9107 39.3029C15.0872 39.2116 15.2303 39.0898 15.3398 38.9377C15.4494 38.7794 15.5285 38.5968 15.5772 38.3899C15.6259 38.1768 15.6503 37.9486 15.6503 37.7051ZM16.5359 37.7051C16.5359 38.0642 16.4872 38.3959 16.3898 38.7003C16.2985 39.0046 16.1615 39.2664 15.9789 39.4855C15.7963 39.7046 15.5711 39.875 15.3033 39.9968C15.0416 40.1185 14.7403 40.1794 14.3994 40.1794C14.1255 40.1794 13.882 40.1429 13.669 40.0698C13.462 39.9968 13.3068 39.9268 13.2034 39.8598V41.7589H12.3542V35.4682C12.5551 35.4195 12.8047 35.3678 13.1029 35.313C13.4073 35.2521 13.7573 35.2217 14.1529 35.2217C14.5181 35.2217 14.8468 35.2795 15.139 35.3951C15.4311 35.5108 15.6807 35.6751 15.8876 35.8882C16.0946 36.1012 16.2528 36.363 16.3624 36.6734C16.4781 36.9777 16.5359 37.3216 16.5359 37.7051ZM18.8022 35.2034C19.0761 35.2034 19.3317 35.2308 19.5691 35.2856C19.8065 35.3404 20.0104 35.4225 20.1808 35.5321C20.3513 35.6417 20.4852 35.7786 20.5826 35.943C20.68 36.1073 20.7287 36.299 20.7287 36.5182C20.7287 36.6582 20.7043 36.786 20.6556 36.9016C20.6069 37.0173 20.546 37.1208 20.473 37.2121C20.4 37.3034 20.3178 37.3825 20.2265 37.4494C20.1413 37.5103 20.0591 37.5529 19.98 37.5773C20.26 37.6625 20.4791 37.8147 20.6374 38.0338C20.8017 38.2468 20.8839 38.5177 20.8839 38.8464C20.8839 39.2968 20.7013 39.6316 20.3361 39.8507C19.9708 40.0698 19.4748 40.1794 18.8478 40.1794C18.4644 40.1794 18.1326 40.149 17.8526 40.0881C17.5787 40.0272 17.3839 39.9694 17.2683 39.9146L17.4144 39.1933C17.5118 39.2298 17.6852 39.2816 17.9348 39.3485C18.1905 39.4094 18.4948 39.4398 18.8478 39.4398C19.2313 39.4398 19.5235 39.382 19.7243 39.2664C19.9252 39.1446 20.0256 38.9651 20.0256 38.7277C20.0256 38.5573 19.9861 38.4203 19.9069 38.3168C19.8339 38.2073 19.7395 38.1251 19.6239 38.0703C19.5082 38.0155 19.3835 37.979 19.2496 37.9607C19.1156 37.9425 18.9909 37.9334 18.8752 37.9334H18.0809V37.2577H18.8478C18.9574 37.2577 19.07 37.2516 19.1856 37.2395C19.3074 37.2212 19.4169 37.1877 19.5143 37.139C19.6178 37.0903 19.703 37.0234 19.77 36.9382C19.8369 36.8469 19.8704 36.7282 19.8704 36.5821C19.8704 36.4664 19.84 36.369 19.7791 36.2899C19.7243 36.2047 19.6482 36.1347 19.5509 36.0799C19.4535 36.0251 19.3378 35.9856 19.2039 35.9612C19.0761 35.9308 18.9422 35.9156 18.8022 35.9156C18.6926 35.9156 18.5739 35.9247 18.4461 35.943C18.3183 35.9612 18.1935 35.9856 18.0718 36.016C17.95 36.0404 17.8405 36.0677 17.7431 36.0982C17.6457 36.1286 17.5757 36.156 17.5331 36.1803L17.3779 35.4499C17.4266 35.4317 17.5026 35.4073 17.6061 35.3769C17.7096 35.3465 17.8252 35.3191 17.9531 35.2947C18.087 35.2704 18.227 35.2491 18.3731 35.2308C18.5191 35.2125 18.6622 35.2034 18.8022 35.2034ZM26.0539 35.3221V40.0698H25.2322V36.4543C25.0496 36.6856 24.8487 36.9564 24.6296 37.2668C24.4105 37.5773 24.1914 37.8999 23.9722 38.2346C23.7531 38.5633 23.5431 38.889 23.3423 39.2116C23.1414 39.5342 22.9679 39.8203 22.8218 40.0698H22.064V35.3221H22.8857V38.7368C23.044 38.4751 23.2236 38.189 23.4244 37.8786C23.6253 37.5621 23.8322 37.2516 24.0453 36.9473C24.2644 36.6369 24.4805 36.3416 24.6935 36.0617C24.9127 35.7756 25.1166 35.5291 25.3053 35.3221H26.0539ZM31.4013 40.0698H30.5522V37.9699H28.361V40.0698H27.5118V35.3221H28.361V37.2577H30.5522V35.3221H31.4013V40.0698ZM34.4685 39.4581C34.6694 39.4581 34.8459 39.4551 34.9981 39.449C35.1563 39.4368 35.2872 39.4185 35.3907 39.3942V37.979C35.3298 37.9486 35.2294 37.9242 35.0894 37.906C34.9554 37.8816 34.7911 37.8694 34.5963 37.8694C34.4685 37.8694 34.3315 37.8786 34.1855 37.8968C34.0455 37.9151 33.9146 37.9547 33.7929 38.0155C33.6772 38.0703 33.5798 38.1494 33.5007 38.2529C33.4216 38.3503 33.382 38.4812 33.382 38.6455C33.382 38.9498 33.4794 39.1629 33.6742 39.2846C33.8689 39.4003 34.1337 39.4581 34.4685 39.4581ZM34.3955 35.2034C34.7363 35.2034 35.0224 35.2491 35.2537 35.3404C35.4911 35.4256 35.6798 35.5504 35.8198 35.7147C35.9659 35.873 36.0693 36.0647 36.1302 36.2899C36.1911 36.509 36.2215 36.7525 36.2215 37.0203V39.9877C36.1485 39.9998 36.045 40.0181 35.9111 40.0424C35.7833 40.0607 35.6372 40.079 35.4728 40.0972C35.3085 40.1155 35.1289 40.1307 34.9341 40.1429C34.7455 40.1611 34.5568 40.1703 34.3681 40.1703C34.1002 40.1703 33.8537 40.1429 33.6285 40.0881C33.4033 40.0333 33.2085 39.9481 33.0442 39.8324C32.8798 39.7107 32.752 39.5524 32.6607 39.3577C32.5694 39.1629 32.5238 38.9285 32.5238 38.6546C32.5238 38.3929 32.5755 38.1677 32.679 37.979C32.7885 37.7903 32.9346 37.6381 33.1172 37.5225C33.2998 37.4068 33.5129 37.3216 33.7563 37.2668C33.9998 37.2121 34.2555 37.1847 34.5233 37.1847C34.6085 37.1847 34.6968 37.1908 34.7881 37.2029C34.8794 37.209 34.9646 37.2212 35.0437 37.2395C35.1289 37.2516 35.202 37.2638 35.2628 37.276C35.3237 37.2881 35.3663 37.2973 35.3907 37.3034V37.066C35.3907 36.926 35.3754 36.789 35.345 36.6551C35.3146 36.5151 35.2598 36.3934 35.1807 36.2899C35.1015 36.1803 34.992 36.0951 34.852 36.0343C34.7181 35.9673 34.5415 35.9338 34.3224 35.9338C34.0424 35.9338 33.7959 35.9551 33.5829 35.9977C33.3759 36.0343 33.2207 36.0738 33.1172 36.1164L33.0168 35.4134C33.1264 35.3647 33.309 35.3191 33.5646 35.2765C33.8203 35.2278 34.0972 35.2034 34.3955 35.2034Z" fill="black"/>
</svg>
