<svg width="11" height="6" viewBox="0 0 11 6" fill="none" xmlns="http://www.w3.org/2000/svg">
<path d="M1.2959 2.77924C1.08579 2.77924 0.915472 2.94956 0.915472 3.15967C0.915472 3.36977 1.08579 3.54009 1.2959 3.54009V2.77924ZM10.6951 3.42867C10.8437 3.2801 10.8437 3.03923 10.6951 2.89067L8.27411 0.46965C8.12554 0.321084 7.88467 0.321084 7.73611 0.46965C7.58754 0.618216 7.58754 0.859088 7.73611 1.00765L9.88812 3.15967L7.73611 5.31168C7.58754 5.46025 7.58754 5.70112 7.73611 5.84969C7.88467 5.99825 8.12554 5.99825 8.27411 5.84969L10.6951 3.42867ZM1.2959 3.54009H10.4261V2.77924H1.2959V3.54009Z" fill="black"/>
</svg>
