<svg width="39" height="9" viewBox="0 0 39 9" fill="none" xmlns="http://www.w3.org/2000/svg">
<path d="M3.95013 0.425781L4.80424 3.05446H7.5682L5.33211 4.67907L6.18622 7.30775L3.95013 5.68314L1.71405 7.30775L2.56816 4.67907L0.332068 3.05446H3.09602L3.95013 0.425781Z" fill="#FFE500"/>
<path d="M34.3843 0.425781L35.2384 3.05446H38.0024L35.7663 4.67907L36.6204 7.30775L34.3843 5.68314L32.1483 7.30775L33.0024 4.67907L30.7663 3.05446H33.5302L34.3843 0.425781Z" fill="#FFE500"/>
<path d="M26.7758 0.425781L27.6299 3.05446H30.3939L28.1578 4.67907L29.0119 7.30775L26.7758 5.68314L24.5397 7.30775L25.3938 4.67907L23.1578 3.05446H25.9217L26.7758 0.425781Z" fill="#FFE500"/>
<path d="M19.1672 0.425781L20.0213 3.05446H22.7852L20.5492 4.67907L21.4033 7.30775L19.1672 5.68314L16.9311 7.30775L17.7852 4.67907L15.5491 3.05446H18.3131L19.1672 0.425781Z" fill="#FFE500"/>
<path d="M11.5587 0.425781L12.4128 3.05446H15.1767L12.9406 4.67907L13.7947 7.30775L11.5587 5.68314L9.32257 7.30775L10.1767 4.67907L7.94059 3.05446H10.7045L11.5587 0.425781Z" fill="#FFE500"/>
</svg>
